PathFileType	4	(X/Y/Z)	C:\Users\Basilio\Documents\Thesis Gigler\squatting_fais\c3dfiles\058\SJ_pre4\markers_experimental.trc
DataRate	CameraRate	NumFrames	NumMarkers	Units	OrigDataRate	OrigDataStartFrame	OrigNumFrames
200.000000	200.000000	4	61	mm	200.000000	1128	1290
Frame#	Time	FHD			LBHD			RBHD			C7			T10			CLAV			LSHO			LUUPA			LMUPA			LDUPA			LLEP			LMEP			LRAD			LUL			LRFIN			RSHO			RUPA1			RMUPA			RDUPA			RLEP			RMEP			RRAD			RUL			RUFIN			LASI			RASI			USACR			LSACR			RSACR			LTHI1			LTHI2			LTHI3			LTHI4			LLFC			LMFC			LTIB1			LTIB2			LTIB3			LTIB4			LLMAL			LMMAL			LHEE			LMT1			LMT2			LMT5			RTHI			RTHI2			RTHI3			RTHI4			RLFC			RMFC			RTIB1			RTIB2			RTIB3			RTIB4			RLMAL			RMMAL			RHEE			RMT1			RMT2			RMT5			
		X1	Y1	Z1	X2	Y2	Z2	X3	Y3	Z3	X4	Y4	Z4	X5	Y5	Z5	X6	Y6	Z6	X7	Y7	Z7	X8	Y8	Z8	X9	Y9	Z9	X10	Y10	Z10	X11	Y11	Z11	X12	Y12	Z12	X13	Y13	Z13	X14	Y14	Z14	X15	Y15	Z15	X16	Y16	Z16	X17	Y17	Z17	X18	Y18	Z18	X19	Y19	Z19	X20	Y20	Z20	X21	Y21	Z21	X22	Y22	Z22	X23	Y23	Z23	X24	Y24	Z24	X25	Y25	Z25	X26	Y26	Z26	X27	Y27	Z27	X28	Y28	Z28	X29	Y29	Z29	X30	Y30	Z30	X31	Y31	Z31	X32	Y32	Z32	X33	Y33	Z33	X34	Y34	Z34	X35	Y35	Z35	X36	Y36	Z36	X37	Y37	Z37	X38	Y38	Z38	X39	Y39	Z39	X40	Y40	Z40	X41	Y41	Z41	X42	Y42	Z42	X43	Y43	Z43	X44	Y44	Z44	X45	Y45	Z45	X46	Y46	Z46	X47	Y47	Z47	X48	Y48	Z48	X49	Y49	Z49	X50	Y50	Z50	X51	Y51	Z51	X52	Y52	Z52	X53	Y53	Z53	X54	Y54	Z54	X55	Y55	Z55	X56	Y56	Z56	X57	Y57	Z57	X58	Y58	Z58	X59	Y59	Z59	X60	Y60	Z60	X61	Y61	Z61	

1129	5.64	-2.546398401260376	1675.777099609375	-781.663024902344	-148.2803192138672	1753.857543945313	-853.6545410156252	10.4516134262085	1673.464111328125	-923.6396484375002	-264.2695312500001	1589.153198242188	-872.043395996094	-308.0313720703126	1262.827270507813	-867.8114013671877	-119.6747589111328	1505.251586914063	-859.745544433594	-131.8852233886719	1579.098388671875	-1028.903076171875	-289.6250305175782	1474.841186523438	-1175.289428710938	-264.6822814941407	1433.392944335938	-1187.596801757813	-319.7062988281251	1418.901123046875	-1208.37060546875	-355.3734130859376	1346.986328125	-1235.8154296875	-403.0867004394532	1342.51708984375	-1177.334106445313	-296.8879394531251	1145.070190429688	-1059.74365234375	-273.2284545898438	1098.165649414063	-1122.269897460938	-221.8959655761719	1162.148559570313	-1060.01953125	-159.2074432373047	1584.203491210938	-693.2807617187501	-303.6241149902344	1462.898315429688	-546.7817382812501	-272.2189636230469	1424.047607421875	-541.7099609375001	-318.8904724121094	1402.98388671875	-512.2227783203126	-349.4562072753907	1343.875122070313	-485.4165039062501	-405.3910522460939	1321.52099609375	-551.9736938476564	-248.6881408691407	1156.790161132813	-649.2287597656251	-231.2521057128907	1110.243286132813	-585.7669677734376	-176.776611328125	1131.895263671875	-676.1115112304689	-144.0122375488282	1047.087280273438	-991.707458496094	-137.1847229003907	1051.35693359375	-753.8183593750001	-324.5224609375001	1142.5166015625	-855.7429809570315	-334.3504028320313	1111.591186523438	-883.234069824219	-330.7752685546876	1110.693359375	-826.159118652344	-222.8347930908204	777.5952148437502	-1090.325439453125	-197.9389801025391	696.3610839843751	-1096.09130859375	-151.1067199707032	693.8465576171876	-1078.222412109375	-229.4481506347657	645.6223754882814	-1088.893676757813	-233.0264434814454	545.1174316406251	-1088.418090820313	-191.686019897461	522.3369140625001	-972.6226806640627	-183.6768341064453	404.4629821777345	-1078.17236328125	-247.6912384033204	379.3916015625001	-1128.564575195313	-206.7129211425782	366.0675354003907	-1112.724731445313	-209.4787902832032	281.4492797851563	-1097.99365234375	-289.8507995605469	92.97440338134767	-1121.5009765625	-248.0355072021485	95.78023529052736	-1036.977661132813	-342.4885559082032	50.57131195068361	-1063.27490234375	-119.6695785522461	62.13259887695314	-1100.626342773438	-128.592269897461	60.1703338623047	-1148.808959960938	-186.1597595214844	37.24847793579102	-1190.659057617188	-257.9014587402344	852.030944824219	-665.0261230468751	-221.4190063476563	797.294128417969	-653.8578491210939	-188.1713104248047	797.5841064453127	-655.6563110351564	-249.5639801025391	717.7581787109376	-666.0328979492189	-246.2829284667969	538.0928955078126	-666.2022094726564	-188.1978759765625	509.6446533203126	-784.9885864257815	-193.8244018554688	321.9565429687501	-712.4784545898439	-250.1485900878907	256.1021728515626	-646.9786987304689	-210.8169860839844	244.6181945800782	-670.4900512695314	-214.6432189941407	195.4132690429688	-698.8856811523439	-290.4046020507813	95.55381774902345	-661.3244628906251	-235.3508605957032	102.4674148559571	-739.2446899414064	-333.0943298339844	49.38151931762697	-734.1363525390626	-126.8675231933594	55.09038162231447	-661.2883300781251	-143.5016479492188	61.27201080322267	-612.0905151367189	-203.2122650146485	28.97594070434571	-576.5191650390626	
1130	5.645	-2.12807297706604	1674.861328125	-781.2595214843752	-146.765121459961	1753.7861328125	-853.4495849609377	10.92200374603272	1672.48291015625	-923.2706298828127	-263.8342590332032	1589.4228515625	-871.895446777344	-308.6859741210938	1263.005859375	-867.7977294921877	-119.5935668945313	1504.945678710938	-859.5652465820315	-131.6287384033203	1578.83251953125	-1028.7099609375	-289.4399719238282	1475.129028320313	-1175.1416015625	-264.8391418457032	1433.523071289063	-1187.42333984375	-319.7457275390626	1419.121459960938	-1208.199096679688	-355.6246337890626	1347.356689453125	-1235.652099609375	-403.4551086425782	1343.065673828125	-1177.21630859375	-297.8618774414063	1145.142700195313	-1059.575805664063	-274.1725463867188	1098.22802734375	-1122.151245117188	-222.6580200195313	1162.185913085938	-1059.937255859375	-159.2330474853516	1583.628784179688	-693.1779174804689	-303.7339782714844	1462.889282226563	-546.7318115234376	-272.4708862304688	1423.829956054688	-541.6381225585939	-319.0207519531251	1402.98095703125	-512.1694335937501	-349.9309387207032	1344.071166992188	-485.330780029297	-405.9867248535157	1321.84521484375	-551.9660034179689	-249.7999725341797	1156.656372070313	-649.2215576171876	-232.1161804199219	1110.131713867188	-585.8041381835939	-177.6237182617188	1131.661499023438	-675.9631958007814	-144.8495330810547	1047.11962890625	-991.5939941406252	-137.9407043457032	1051.264892578125	-753.7584838867189	-325.2975463867188	1142.568603515625	-855.7902832031252	-335.2461547851563	1111.706909179688	-883.2896118164065	-331.6306152343751	1110.863647460938	-826.2520751953127	-223.4081268310547	777.5675048828127	-1090.35888671875	-198.7066345214844	696.4006958007814	-1096.117431640625	-151.7242889404297	693.8742065429689	-1078.2919921875	-230.1920776367188	645.6229858398439	-1088.833374023438	-233.6685028076172	545.1467285156251	-1088.482543945313	-192.2995910644532	522.3441162109376	-972.5699462890627	-183.9991760253907	404.7188720703126	-1078.373168945313	-247.9414367675782	379.4651184082032	-1128.665893554688	-207.1592254638672	366.1501464843751	-1112.779296875	-209.5386962890626	281.5532836914063	-1098.03515625	-290.1573486328126	92.83814239501955	-1121.466796875	-248.0350189208985	95.85469818115236	-1037.01904296875	-342.4956359863282	50.56032562255861	-1063.3076171875	-119.7088012695313	62.11888504028322	-1100.677612304688	-128.5651092529297	60.169002532959	-1148.867065429688	-186.14599609375	37.32409667968751	-1190.636840820313	-258.8546752929688	851.957702636719	-664.9495239257814	-222.394760131836	797.1696777343752	-653.6973266601564	-189.0270385742188	797.5603027343752	-655.4556274414064	-250.1412811279297	717.7933349609376	-665.9783935546876	-246.8867645263672	538.0374145507814	-666.0190429687501	-188.4205780029297	509.6387939453126	-784.9090576171877	-194.3632202148438	321.9189758300782	-712.3568725585939	-250.210189819336	256.1407470703126	-646.9409790039064	-210.8768920898438	244.6620178222657	-670.4235229492189	-214.6377410888672	195.5270996093751	-698.8859863281251	-290.4401550292969	95.55061340332033	-661.3315429687501	-235.4409942626954	102.5146865844727	-739.2441406250001	-333.0938415527344	49.41529464721681	-734.1625366210939	-126.8884887695313	55.089656829834	-661.3171997070314	-143.4847259521485	61.3169403076172	-612.0881347656251	-203.2657623291016	29.05770492553712	-576.5170898437501	
1131	5.65	-1.188065767288208	1674.00634765625	-780.6011352539065	-146.0767822265625	1753.5830078125	-852.871276855469	11.5935640335083	1671.512329101563	-923.0169067382815	-263.4434204101563	1589.656127929688	-871.7128906250002	-309.2949523925782	1263.250366210938	-867.810241699219	-119.4443511962891	1504.69287109375	-859.4351806640627	-131.3709259033203	1578.60546875	-1028.506469726563	-289.4085388183594	1475.304077148438	-1174.907104492188	-264.8825073242188	1433.625854492188	-1187.300659179688	-319.8735961914063	1419.345092773438	-1208.078735351563	-355.9421691894532	1347.672729492188	-1235.513671875	-403.6834716796876	1343.43017578125	-1177.008544921875	-298.6787414550782	1145.139038085938	-1059.452270507813	-275.1265258789063	1098.296752929688	-1122.088623046875	-223.6284637451172	1162.194946289063	-1059.81005859375	-158.8994903564453	1583.392822265625	-692.8386840820314	-303.7391967773438	1462.884399414063	-546.6334228515626	-272.5528564453126	1423.731811523438	-541.6447753906251	-319.4062805175782	1402.957275390625	-511.8419494628907	-350.3954162597657	1344.234497070313	-485.162567138672	-406.5366821289064	1322.126220703125	-551.9100952148439	-250.4143524169922	1156.586303710938	-649.0969238281251	-232.9800872802735	1109.955200195313	-585.5971679687501	-178.7506713867188	1131.273803710938	-675.7697143554689	-145.7987976074219	1047.090454101563	-991.4939575195315	-138.8114776611328	1051.132690429688	-753.6138305664064	-326.1063537597657	1142.814697265625	-855.8477783203127	-335.9578552246094	1111.948608398438	-883.3095703125002	-332.5092468261719	1110.947998046875	-826.251892089844	-224.375717163086	777.685974121094	-1090.425659179688	-199.2904663085938	696.4146728515626	-1096.182250976563	-152.3167724609375	693.9361572265626	-1078.40234375	-230.8575592041016	645.6765747070314	-1088.787353515625	-234.2091979980469	545.1936645507814	-1088.528930664063	-192.9281463623047	522.3297729492189	-972.516052246094	-184.3307342529297	404.8705444335939	-1078.474731445313	-248.4207458496094	379.5089721679688	-1128.717163085938	-207.4939422607422	366.2695617675782	-1112.826416015625	-210.040023803711	281.9678344726563	-1098.183349609375	-290.0262756347657	92.90615081787111	-1121.526977539063	-248.0926818847657	95.8464813232422	-1037.090454101563	-342.5355834960938	50.53605270385744	-1063.314575195313	-119.7313537597657	62.09561920166017	-1100.721069335938	-128.5574340820313	60.17358016967775	-1148.854858398438	-186.1154327392578	37.16006469726563	-1190.747436523438	-259.7193603515626	851.8029785156252	-664.7670288085939	-223.0497283935547	797.0279541015627	-653.5935058593751	-189.4959259033203	797.7138671875002	-655.2344970703126	-250.8056335449219	717.7125854492189	-665.8732299804689	-247.0432739257813	537.9519042968751	-665.8944091796876	-188.7357330322266	509.6072692871095	-784.8174438476565	-194.4591674804688	322.0062866210938	-712.3038940429689	-250.2584991455079	256.1685485839844	-646.9073486328126	-210.9583892822266	244.7322540283204	-670.3352661132814	-214.5658111572266	195.5287780761719	-698.7510986328126	-290.4526062011719	95.55153656005861	-661.3203735351564	-235.4271392822266	102.5148239135742	-739.2282104492189	-333.0751953125001	49.35047149658205	-734.1309814453126	-126.896469116211	55.03443527221681	-661.3088378906251	-143.4904174804688	61.30353927612306	-612.0957641601564	-203.2320251464844	29.01848602294923	-576.5111083984376	
1132	5.655	-0.7835991382598879	1673.270141601563	-780.1461181640627	-145.3059234619141	1753.255615234375	-852.3421020507815	12.39208507537842	1670.583129882813	-922.6734619140627	-263.1441955566407	1589.779907226563	-871.5959472656252	-309.9875183105469	1263.43896484375	-867.8422851562502	-119.4820175170899	1504.337524414063	-859.2464599609377	-130.9415588378907	1578.404296875	-1028.2958984375	-289.4540100097657	1475.42724609375	-1174.75146484375	-264.9619750976563	1433.727783203125	-1187.139892578125	-319.9701232910157	1419.597045898438	-1207.920776367188	-356.2354736328126	1347.957275390625	-1235.415893554688	-403.9613647460939	1343.793823242188	-1176.940551757813	-299.5140380859376	1145.437377929688	-1059.296020507813	-276.1236572265626	1098.38037109375	-1121.978149414063	-224.5804748535157	1162.185546875	-1059.771362304688	-158.3984680175782	1583.155517578125	-692.7055664062501	-303.7537536621094	1462.85791015625	-546.5324096679689	-272.5995788574219	1423.567749023438	-541.6107788085939	-319.4871215820313	1402.987060546875	-512.1016235351564	-350.8758544921876	1344.387573242188	-485.0475463867189	-407.0390014648439	1322.41455078125	-551.8746948242189	-251.2416687011719	1156.541870117188	-649.0275268554689	-234.0606994628907	1109.751220703125	-585.5021362304689	-179.4828796386719	1131.180419921875	-675.6936035156251	-146.5707092285157	1047.033203125	-991.437438964844	-139.6454315185547	1050.941284179688	-753.5991210937501	-327.0377807617188	1143.010009765625	-855.8242187500002	-336.6357421875001	1112.106811523438	-883.306335449219	-333.1839599609376	1111.142456054688	-826.2608032226565	-225.0511932373047	777.7034912109377	-1090.482666015625	-200.0484161376954	696.4979248046876	-1096.218994140625	-153.0350341796875	693.9747924804689	-1078.51318359375	-231.5053863525391	645.7672729492189	-1088.747680664063	-234.8468780517579	545.2828979492189	-1088.584594726563	-193.4607849121094	522.4466552734376	-972.5322265625002	-184.8468017578125	404.8859863281251	-1078.513916015625	-248.8004455566407	379.5361022949219	-1128.75146484375	-207.7872619628907	366.2805175781251	-1112.953979492188	-210.1638946533204	282.1300048828126	-1098.22314453125	-290.0735778808594	92.92607879638673	-1121.531372070313	-248.1291656494141	95.83886718750001	-1037.191162109375	-342.5307312011719	50.52181243896486	-1063.34130859375	-119.7334060668946	62.10573959350587	-1100.7138671875	-128.5613098144532	60.18725204467775	-1148.88623046875	-186.1618347167969	37.09600830078126	-1190.770751953125	-260.1451721191407	851.7424926757815	-664.7051391601564	-223.8172760009766	797.170593261719	-653.5368041992189	-190.2295684814453	797.5457763671877	-655.0151977539064	-251.4215393066407	717.7220458984376	-665.7747192382814	-247.2233123779297	537.9434204101564	-665.7576904296876	-189.0384826660157	509.765838623047	-784.6619262695315	-194.523910522461	322.0507812500001	-712.1914672851564	-250.4086914062501	256.1503601074219	-646.8451538085939	-211.0655212402344	244.8421630859376	-670.2484130859376	-214.6587982177735	195.6485443115235	-698.6494750976564	-290.4717407226563	95.5542678833008	-661.2790527343751	-235.3101196289063	102.6186141967774	-739.1473999023439	-333.1053161621094	49.44851303100587	-734.1128540039064	-126.8678054809571	55.08958053588869	-661.2861328125001	-143.5349884033203	61.2892303466797	-612.0837402343751	-203.2315979003907	28.96882247924805	-576.5222167968751	
